# xmcd
#
# Track frame offsets: 
#        150
#        11887
#        27995
#        42789
#        59248
#        73396
#        89513
#        103940
#        118066
#        136346
#
# Disc length: 2054 seconds
#
# Revision: 1
# Processed by: cddbd v1.5.2PL0 Copyright (c) Steve Scherf et al.
# Submitted via: ExactAudioCopyFreeDBPlugin 1.0
#
DISCID=9a08040a
DTITLE=Concrete Knives - Be Your Own King
DYEAR=2012
DGENRE=Indie Rock
TTITLE0=Bornholmer
TTITLE1=Happy Mondays
TTITLE2=Brand New Start
TTITLE3=Wallpaper
TTITLE4=Africanize
TTITLE5=Roller Boogie
TTITLE6=Greyhound Racing
TTITLE7=Wild Gun Man
TTITLE8=Truth
TTITLE9=Blessed
EXTD=
EXTT0=
EXTT1=
EXTT2=
EXTT3=
EXTT4=
EXTT5=
EXTT6=
EXTT7=
EXTT8=
EXTT9=
PLAYORDER=
